<svg xmlns="http://www.w3.org/2000/svg" width="1200" height="675" viewBox="0 0 1200 675">
  <defs>
    <linearGradient id="g2" x1="0" x2="1" y1="0" y2="1">
      <stop offset="0%" stop-color="#111827"/>
      <stop offset="100%" stop-color="#1f2937"/>
    </linearGradient>
  </defs>
  <rect width="1200" height="675" fill="url(#g2)"/>
  <rect x="28" y="24" width="1144" height="627" rx="12" fill="#0b1222" stroke="#334155" stroke-width="2"/>
  <text x="52" y="68" font-family="Arial, sans-serif" font-size="34" fill="#93c5fd">Charts and Cohort Funnel</text>
  <rect x="68" y="110" width="540" height="500" rx="14" fill="#0f172a" stroke="#475569"/>
  <line x1="110" y1="560" x2="575" y2="560" stroke="#64748b" />
  <polyline points="110,500 190,440 270,470 350,380 430,320 510,250" fill="none" stroke="#60a5fa" stroke-width="5"/>
  <polyline points="110,560 190,520 270,500 350,430 430,390 510,340" fill="none" stroke="#34d399" stroke-width="5"/>
  <rect x="590" y="110" width="540" height="500" rx="14" fill="#0f172a" stroke="#475569"/>
  <text x="635" y="175" font-family="Arial, sans-serif" font-size="24" fill="#bfdbfe">Cohort Stages</text>
  <text x="635" y="220" font-family="Arial, sans-serif" font-size="20" fill="#cbd5f5">Visit -> Sign up -> Activate -> Subscribe -> Renew</text>
  <rect x="635" y="250" width="460" height="45" rx="8" fill="#1d4ed8"/>
  <rect x="635" y="305" width="390" height="45" rx="8" fill="#2563eb"/>
  <rect x="635" y="360" width="330" height="45" rx="8" fill="#3b82f6"/>
  <rect x="635" y="415" width="250" height="45" rx="8" fill="#60a5fa"/>
  <rect x="635" y="470" width="170" height="45" rx="8" fill="#93c5fd"/>
</svg>

